<mxfile host="app.diagrams.net" modified="2024-09-25T20:26:45.321Z" agent="Mozilla/5.0 (Macintosh; Intel Mac OS X 10_15_7) AppleWebKit/537.36 (KHTML, like Gecko) Chrome/128.0.0.0 Safari/537.36 Edg/128.0.0.0" etag="b_XASvNLMroi6GFe0Jhd" version="24.0.5" type="device">
  <diagram name="第 1 页" id="7KYPnP18oo2fFxVbqQ8u">
    <mxGraphModel dx="971" dy="722" grid="1" gridSize="10" guides="1" tooltips="1" connect="1" arrows="1" fold="1" page="1" pageScale="1" pageWidth="827" pageHeight="1169" math="0" shadow="0">
      <root>
        <mxCell id="0" />
        <mxCell id="1" parent="0" />
        <mxCell id="vPGKGPONP4oqaYuJoUhf-88" value="" style="rounded=0;whiteSpace=wrap;html=1;fillColor=none;dashed=1;dashPattern=8 8;strokeColor=#64BC71;" vertex="1" parent="1">
          <mxGeometry x="230" y="120" width="160" height="480" as="geometry" />
        </mxCell>
        <mxCell id="vPGKGPONP4oqaYuJoUhf-73" value="" style="ellipse;whiteSpace=wrap;html=1;aspect=fixed;fillColor=none;dashed=1;dashPattern=1 2;strokeWidth=2;strokeColor=#8A8A8A;" vertex="1" parent="1">
          <mxGeometry x="480" y="267.13" width="107" height="107" as="geometry" />
        </mxCell>
        <mxCell id="vPGKGPONP4oqaYuJoUhf-1" value="Zotero Startup" style="rounded=1;whiteSpace=wrap;html=1;fillColor=none;strokeColor=none;fontStyle=0;fontColor=#8A8A8A;" vertex="1" parent="1">
          <mxGeometry x="410" y="120" width="120" height="20" as="geometry" />
        </mxCell>
        <mxCell id="vPGKGPONP4oqaYuJoUhf-8" value="" style="edgeStyle=orthogonalEdgeStyle;rounded=0;orthogonalLoop=1;jettySize=auto;html=1;entryX=0.5;entryY=0;entryDx=0;entryDy=0;strokeColor=#6d6d6d;" edge="1" parent="1" target="vPGKGPONP4oqaYuJoUhf-3">
          <mxGeometry relative="1" as="geometry">
            <mxPoint x="469.9999999999998" y="140" as="sourcePoint" />
          </mxGeometry>
        </mxCell>
        <mxCell id="vPGKGPONP4oqaYuJoUhf-9" value="" style="edgeStyle=orthogonalEdgeStyle;rounded=0;orthogonalLoop=1;jettySize=auto;html=1;strokeColor=#6D6D6D;" edge="1" parent="1" source="vPGKGPONP4oqaYuJoUhf-3" target="vPGKGPONP4oqaYuJoUhf-5">
          <mxGeometry relative="1" as="geometry" />
        </mxCell>
        <mxCell id="vPGKGPONP4oqaYuJoUhf-3" value="Load Main Window" style="rounded=1;whiteSpace=wrap;html=1;fillColor=#4c71de;strokeColor=none;fontColor=#ffffff;" vertex="1" parent="1">
          <mxGeometry x="410" y="160" width="120" height="40" as="geometry" />
        </mxCell>
        <mxCell id="vPGKGPONP4oqaYuJoUhf-77" value="" style="edgeStyle=orthogonalEdgeStyle;rounded=0;orthogonalLoop=1;jettySize=auto;html=1;strokeColor=#6D6D6D;" edge="1" parent="1" source="vPGKGPONP4oqaYuJoUhf-5" target="vPGKGPONP4oqaYuJoUhf-76">
          <mxGeometry relative="1" as="geometry" />
        </mxCell>
        <mxCell id="vPGKGPONP4oqaYuJoUhf-5" value="Load Plugins" style="rounded=1;whiteSpace=wrap;html=1;strokeColor=none;fillColor=#4c71de;fontColor=#ffffff;align=center;verticalAlign=middle;fontFamily=Helvetica;fontSize=12;" vertex="1" parent="1">
          <mxGeometry x="410" y="220" width="120" height="40" as="geometry" />
        </mxCell>
        <mxCell id="vPGKGPONP4oqaYuJoUhf-10" value="startup()" style="rounded=1;whiteSpace=wrap;html=1;strokeColor=#64bc71;fontColor=#64bc71;labelBackgroundColor=none;labelBorderColor=none;textShadow=0;align=center;fontStyle=1;strokeWidth=2;" vertex="1" parent="1">
          <mxGeometry x="250" y="220" width="120" height="40" as="geometry" />
        </mxCell>
        <mxCell id="vPGKGPONP4oqaYuJoUhf-51" style="edgeStyle=orthogonalEdgeStyle;rounded=0;orthogonalLoop=1;jettySize=auto;html=1;entryX=0;entryY=0.5;entryDx=0;entryDy=0;dashed=1;strokeColor=#64BC71;strokeWidth=1.5;align=center;verticalAlign=middle;fontFamily=Helvetica;fontSize=11;fontColor=default;labelBackgroundColor=default;endArrow=classic;" edge="1" parent="1" source="vPGKGPONP4oqaYuJoUhf-11" target="vPGKGPONP4oqaYuJoUhf-10">
          <mxGeometry relative="1" as="geometry">
            <Array as="points">
              <mxPoint x="230" y="240" />
              <mxPoint x="230" y="240" />
            </Array>
          </mxGeometry>
        </mxCell>
        <mxCell id="vPGKGPONP4oqaYuJoUhf-11" value="Enable Plugin" style="rounded=1;whiteSpace=wrap;html=1;align=center;verticalAlign=middle;fontFamily=Helvetica;fontSize=12;fontColor=#FFFFFF;fillColor=#77abf9;strokeColor=none;" vertex="1" parent="1">
          <mxGeometry x="90" y="220" width="120" height="40" as="geometry" />
        </mxCell>
        <mxCell id="vPGKGPONP4oqaYuJoUhf-53" value="" style="edgeStyle=orthogonalEdgeStyle;rounded=0;orthogonalLoop=1;jettySize=auto;html=1;strokeColor=#8A8A8A;" edge="1" parent="1" source="vPGKGPONP4oqaYuJoUhf-13" target="vPGKGPONP4oqaYuJoUhf-11">
          <mxGeometry relative="1" as="geometry" />
        </mxCell>
        <mxCell id="vPGKGPONP4oqaYuJoUhf-56" value="" style="edgeStyle=orthogonalEdgeStyle;rounded=0;orthogonalLoop=1;jettySize=auto;html=1;dashed=1;strokeColor=#64BC71;strokeWidth=1.5;" edge="1" parent="1" source="vPGKGPONP4oqaYuJoUhf-13" target="vPGKGPONP4oqaYuJoUhf-52">
          <mxGeometry relative="1" as="geometry" />
        </mxCell>
        <mxCell id="vPGKGPONP4oqaYuJoUhf-13" value="Install Plugin" style="rounded=1;whiteSpace=wrap;html=1;strokeColor=none;fillColor=#77abf9;fontColor=#FFFFFF;" vertex="1" parent="1">
          <mxGeometry x="90" y="150" width="120" height="40" as="geometry" />
        </mxCell>
        <mxCell id="vPGKGPONP4oqaYuJoUhf-30" style="edgeStyle=orthogonalEdgeStyle;rounded=0;orthogonalLoop=1;jettySize=auto;html=1;entryX=0.5;entryY=0;entryDx=0;entryDy=0;strokeColor=#6D6D6D;align=center;verticalAlign=middle;fontFamily=Helvetica;fontSize=11;fontColor=default;labelBackgroundColor=default;endArrow=classic;" edge="1" parent="1" source="vPGKGPONP4oqaYuJoUhf-24" target="vPGKGPONP4oqaYuJoUhf-29">
          <mxGeometry relative="1" as="geometry" />
        </mxCell>
        <mxCell id="vPGKGPONP4oqaYuJoUhf-83" style="edgeStyle=orthogonalEdgeStyle;rounded=0;orthogonalLoop=1;jettySize=auto;html=1;entryX=0.5;entryY=1;entryDx=0;entryDy=0;dashed=1;strokeColor=#EEAB3B;strokeWidth=1.5;align=center;verticalAlign=middle;fontFamily=Helvetica;fontSize=11;fontColor=default;labelBackgroundColor=default;endArrow=classic;" edge="1" parent="1" source="vPGKGPONP4oqaYuJoUhf-24" target="vPGKGPONP4oqaYuJoUhf-69">
          <mxGeometry relative="1" as="geometry" />
        </mxCell>
        <mxCell id="vPGKGPONP4oqaYuJoUhf-24" value="Unload Main Window" style="rounded=1;whiteSpace=wrap;html=1;fontColor=#ffffff;fillColor=#4c71de;strokeColor=none;align=center;verticalAlign=middle;fontFamily=Helvetica;fontSize=12;" vertex="1" parent="1">
          <mxGeometry x="410" y="420" width="120" height="40" as="geometry" />
        </mxCell>
        <mxCell id="vPGKGPONP4oqaYuJoUhf-28" style="edgeStyle=orthogonalEdgeStyle;rounded=0;orthogonalLoop=1;jettySize=auto;html=1;entryX=0.5;entryY=0;entryDx=0;entryDy=0;strokeColor=#6D6D6D;align=center;verticalAlign=middle;fontFamily=Helvetica;fontSize=11;fontColor=default;labelBackgroundColor=default;endArrow=classic;" edge="1" parent="1" source="vPGKGPONP4oqaYuJoUhf-25" target="vPGKGPONP4oqaYuJoUhf-24">
          <mxGeometry relative="1" as="geometry" />
        </mxCell>
        <mxCell id="vPGKGPONP4oqaYuJoUhf-25" value="Zotero Shutdown" style="rounded=1;whiteSpace=wrap;html=1;strokeColor=none;fillColor=none;fontColor=#8A8A8A;" vertex="1" parent="1">
          <mxGeometry x="410" y="378" width="120" height="22" as="geometry" />
        </mxCell>
        <mxCell id="vPGKGPONP4oqaYuJoUhf-40" style="edgeStyle=orthogonalEdgeStyle;rounded=0;orthogonalLoop=1;jettySize=auto;html=1;entryX=0.5;entryY=0;entryDx=0;entryDy=0;strokeColor=#6D6D6D;align=center;verticalAlign=middle;fontFamily=Helvetica;fontSize=11;fontColor=default;labelBackgroundColor=default;endArrow=classic;" edge="1" parent="1" source="vPGKGPONP4oqaYuJoUhf-29" target="vPGKGPONP4oqaYuJoUhf-38">
          <mxGeometry relative="1" as="geometry" />
        </mxCell>
        <mxCell id="vPGKGPONP4oqaYuJoUhf-29" value="Unload Plugins" style="rounded=1;whiteSpace=wrap;html=1;fillColor=#4c71de;strokeColor=none;fontColor=#ffffff;align=center;verticalAlign=middle;fontFamily=Helvetica;fontSize=12;" vertex="1" parent="1">
          <mxGeometry x="410" y="480" width="120" height="40" as="geometry" />
        </mxCell>
        <mxCell id="vPGKGPONP4oqaYuJoUhf-38" value="Zotero Exit" style="rounded=1;whiteSpace=wrap;html=1;fillColor=none;strokeColor=none;fontColor=#8A8A8A;" vertex="1" parent="1">
          <mxGeometry x="410" y="545" width="120" height="25" as="geometry" />
        </mxCell>
        <mxCell id="vPGKGPONP4oqaYuJoUhf-70" value="" style="edgeStyle=orthogonalEdgeStyle;rounded=0;orthogonalLoop=1;jettySize=auto;html=1;dashed=1;strokeColor=#EEAB3B;strokeWidth=1.5;align=center;verticalAlign=middle;fontFamily=Helvetica;fontSize=11;fontColor=default;labelBackgroundColor=default;endArrow=classic;" edge="1" parent="1" source="vPGKGPONP4oqaYuJoUhf-41" target="vPGKGPONP4oqaYuJoUhf-68">
          <mxGeometry relative="1" as="geometry" />
        </mxCell>
        <mxCell id="vPGKGPONP4oqaYuJoUhf-41" value="Open Main Window" style="rounded=1;whiteSpace=wrap;html=1;fontColor=#ffffff;strokeColor=none;fillColor=#4c71de;align=center;verticalAlign=middle;fontFamily=Helvetica;fontSize=12;" vertex="1" parent="1">
          <mxGeometry x="540" y="249.87" width="120" height="45" as="geometry" />
        </mxCell>
        <mxCell id="vPGKGPONP4oqaYuJoUhf-71" value="" style="edgeStyle=orthogonalEdgeStyle;rounded=0;orthogonalLoop=1;jettySize=auto;html=1;dashed=1;strokeColor=#EEAB3B;strokeWidth=1.5;align=center;verticalAlign=middle;fontFamily=Helvetica;fontSize=11;fontColor=default;labelBackgroundColor=default;endArrow=classic;" edge="1" parent="1" source="vPGKGPONP4oqaYuJoUhf-42" target="vPGKGPONP4oqaYuJoUhf-69">
          <mxGeometry relative="1" as="geometry" />
        </mxCell>
        <mxCell id="vPGKGPONP4oqaYuJoUhf-42" value="Close Main Window" style="rounded=1;whiteSpace=wrap;html=1;fontColor=#ffffff;strokeColor=none;fillColor=#4c71de;align=center;verticalAlign=middle;fontFamily=Helvetica;fontSize=12;" vertex="1" parent="1">
          <mxGeometry x="540" y="346.37" width="120" height="45" as="geometry" />
        </mxCell>
        <mxCell id="vPGKGPONP4oqaYuJoUhf-47" value="shutdown()" style="rounded=1;whiteSpace=wrap;html=1;strokeColor=#64bc71;strokeWidth=2;align=center;verticalAlign=middle;fontFamily=Helvetica;fontSize=12;fontColor=#64bc71;fontStyle=1;labelBorderColor=none;labelBackgroundColor=none;fillColor=default;" vertex="1" parent="1">
          <mxGeometry x="250" y="480" width="120" height="40" as="geometry" />
        </mxCell>
        <mxCell id="vPGKGPONP4oqaYuJoUhf-48" value="" style="endArrow=classic;html=1;rounded=0;entryX=1;entryY=0.5;entryDx=0;entryDy=0;dashed=1;exitX=0;exitY=0.5;exitDx=0;exitDy=0;strokeColor=#64BC71;strokeWidth=1.5;align=center;verticalAlign=middle;fontFamily=Helvetica;fontSize=11;fontColor=default;labelBackgroundColor=default;" edge="1" parent="1" source="vPGKGPONP4oqaYuJoUhf-29" target="vPGKGPONP4oqaYuJoUhf-47">
          <mxGeometry width="50" height="50" relative="1" as="geometry">
            <mxPoint x="460" y="560" as="sourcePoint" />
            <mxPoint x="470" y="350" as="targetPoint" />
          </mxGeometry>
        </mxCell>
        <mxCell id="vPGKGPONP4oqaYuJoUhf-49" value="" style="endArrow=classic;html=1;rounded=0;entryX=1;entryY=0.5;entryDx=0;entryDy=0;dashed=1;exitX=-0.032;exitY=0.505;exitDx=0;exitDy=0;exitPerimeter=0;strokeColor=#64BC71;strokeWidth=1.5;align=center;verticalAlign=middle;fontFamily=Helvetica;fontSize=11;fontColor=default;labelBackgroundColor=default;" edge="1" parent="1" source="vPGKGPONP4oqaYuJoUhf-5" target="vPGKGPONP4oqaYuJoUhf-10">
          <mxGeometry width="50" height="50" relative="1" as="geometry">
            <mxPoint x="460" y="264.72" as="sourcePoint" />
            <mxPoint x="340" y="264.72" as="targetPoint" />
          </mxGeometry>
        </mxCell>
        <mxCell id="vPGKGPONP4oqaYuJoUhf-52" value="install()" style="rounded=1;whiteSpace=wrap;html=1;strokeColor=#64bc71;strokeWidth=2;align=center;verticalAlign=middle;fontFamily=Helvetica;fontSize=12;fontColor=#64bc71;fontStyle=1;labelBorderColor=none;labelBackgroundColor=none;fillColor=default;" vertex="1" parent="1">
          <mxGeometry x="250" y="150" width="120" height="40" as="geometry" />
        </mxCell>
        <mxCell id="vPGKGPONP4oqaYuJoUhf-62" value="" style="edgeStyle=orthogonalEdgeStyle;rounded=0;orthogonalLoop=1;jettySize=auto;html=1;dashed=1;strokeColor=#64BC71;strokeWidth=1.5;align=center;verticalAlign=middle;fontFamily=Helvetica;fontSize=11;fontColor=default;labelBackgroundColor=default;endArrow=classic;" edge="1" parent="1" source="vPGKGPONP4oqaYuJoUhf-57" target="vPGKGPONP4oqaYuJoUhf-61">
          <mxGeometry relative="1" as="geometry" />
        </mxCell>
        <mxCell id="vPGKGPONP4oqaYuJoUhf-57" value="Uninstall Plugin" style="rounded=1;whiteSpace=wrap;html=1;align=center;verticalAlign=middle;fontFamily=Helvetica;fontSize=12;fontColor=#FFFFFF;fillColor=#77abf9;strokeColor=none;" vertex="1" parent="1">
          <mxGeometry x="90" y="550" width="120" height="40" as="geometry" />
        </mxCell>
        <mxCell id="vPGKGPONP4oqaYuJoUhf-58" value="" style="edgeStyle=orthogonalEdgeStyle;rounded=0;orthogonalLoop=1;jettySize=auto;html=1;strokeColor=#8A8A8A;" edge="1" source="vPGKGPONP4oqaYuJoUhf-59" target="vPGKGPONP4oqaYuJoUhf-57" parent="1">
          <mxGeometry relative="1" as="geometry" />
        </mxCell>
        <mxCell id="vPGKGPONP4oqaYuJoUhf-60" value="" style="edgeStyle=orthogonalEdgeStyle;rounded=0;orthogonalLoop=1;jettySize=auto;html=1;dashed=1;strokeColor=#64BC71;strokeWidth=1.5;align=center;verticalAlign=middle;fontFamily=Helvetica;fontSize=11;fontColor=default;labelBackgroundColor=default;endArrow=classic;" edge="1" parent="1" source="vPGKGPONP4oqaYuJoUhf-59" target="vPGKGPONP4oqaYuJoUhf-47">
          <mxGeometry relative="1" as="geometry" />
        </mxCell>
        <mxCell id="vPGKGPONP4oqaYuJoUhf-59" value="Disable Plugin" style="rounded=1;whiteSpace=wrap;html=1;align=center;verticalAlign=middle;fontFamily=Helvetica;fontSize=12;fontColor=#FFFFFF;fillColor=#77abf9;strokeColor=none;" vertex="1" parent="1">
          <mxGeometry x="90" y="480" width="120" height="40" as="geometry" />
        </mxCell>
        <mxCell id="vPGKGPONP4oqaYuJoUhf-61" value="uninstall()" style="rounded=1;whiteSpace=wrap;html=1;strokeColor=#64bc71;strokeWidth=2;align=center;verticalAlign=middle;fontFamily=Helvetica;fontSize=12;fontColor=#64bc71;fontStyle=1;labelBorderColor=none;labelBackgroundColor=none;fillColor=default;" vertex="1" parent="1">
          <mxGeometry x="250" y="550" width="120" height="40" as="geometry" />
        </mxCell>
        <mxCell id="vPGKGPONP4oqaYuJoUhf-64" value="" style="edgeStyle=orthogonalEdgeStyle;rounded=0;orthogonalLoop=1;jettySize=auto;html=1;entryX=0;entryY=0.5;entryDx=0;entryDy=0;strokeColor=#8A8A8A;" edge="1" parent="1" source="vPGKGPONP4oqaYuJoUhf-63" target="vPGKGPONP4oqaYuJoUhf-11">
          <mxGeometry relative="1" as="geometry" />
        </mxCell>
        <mxCell id="vPGKGPONP4oqaYuJoUhf-65" style="edgeStyle=orthogonalEdgeStyle;rounded=0;orthogonalLoop=1;jettySize=auto;html=1;entryX=0;entryY=0.5;entryDx=0;entryDy=0;strokeColor=#8A8A8A;" edge="1" parent="1" source="vPGKGPONP4oqaYuJoUhf-63" target="vPGKGPONP4oqaYuJoUhf-13">
          <mxGeometry relative="1" as="geometry" />
        </mxCell>
        <mxCell id="vPGKGPONP4oqaYuJoUhf-67" style="edgeStyle=orthogonalEdgeStyle;rounded=0;orthogonalLoop=1;jettySize=auto;html=1;entryX=0;entryY=0.5;entryDx=0;entryDy=0;exitX=1;exitY=0.5;exitDx=0;exitDy=0;strokeColor=#8A8A8A;" edge="1" parent="1" source="vPGKGPONP4oqaYuJoUhf-63" target="vPGKGPONP4oqaYuJoUhf-57">
          <mxGeometry relative="1" as="geometry">
            <mxPoint x="50" y="377.0000000000001" as="sourcePoint" />
          </mxGeometry>
        </mxCell>
        <mxCell id="vPGKGPONP4oqaYuJoUhf-81" style="edgeStyle=orthogonalEdgeStyle;rounded=0;orthogonalLoop=1;jettySize=auto;html=1;entryX=0;entryY=0.5;entryDx=0;entryDy=0;strokeColor=#8A8A8A;" edge="1" parent="1" source="vPGKGPONP4oqaYuJoUhf-63" target="vPGKGPONP4oqaYuJoUhf-59">
          <mxGeometry relative="1" as="geometry" />
        </mxCell>
        <mxCell id="vPGKGPONP4oqaYuJoUhf-63" value="User" style="text;html=1;align=center;verticalAlign=middle;whiteSpace=wrap;rounded=0;fontColor=#8A8A8A;" vertex="1" parent="1">
          <mxGeometry x="20" y="353.87" width="30" height="30" as="geometry" />
        </mxCell>
        <mxCell id="vPGKGPONP4oqaYuJoUhf-68" value="onMainWindowLoad()" style="rounded=1;whiteSpace=wrap;html=1;strokeColor=#eeab3b;strokeWidth=2;align=center;verticalAlign=middle;fontFamily=Helvetica;fontSize=12;fontColor=#eeab3b;fontStyle=1;labelBorderColor=none;labelBackgroundColor=none;fillColor=default;" vertex="1" parent="1">
          <mxGeometry x="700" y="252.37" width="140" height="40" as="geometry" />
        </mxCell>
        <mxCell id="vPGKGPONP4oqaYuJoUhf-69" value="onMainWindowUnload()" style="rounded=1;whiteSpace=wrap;html=1;strokeColor=#eeab3b;strokeWidth=2;align=center;verticalAlign=middle;fontFamily=Helvetica;fontSize=12;fontColor=#eeab3b;fontStyle=1;labelBorderColor=none;labelBackgroundColor=none;fillColor=default;" vertex="1" parent="1">
          <mxGeometry x="700" y="348.87" width="140" height="40" as="geometry" />
        </mxCell>
        <mxCell id="vPGKGPONP4oqaYuJoUhf-80" value="" style="edgeStyle=orthogonalEdgeStyle;rounded=0;orthogonalLoop=1;jettySize=auto;html=1;strokeColor=#6D6D6D;align=center;verticalAlign=middle;fontFamily=Helvetica;fontSize=11;fontColor=default;labelBackgroundColor=default;endArrow=classic;" edge="1" parent="1" source="vPGKGPONP4oqaYuJoUhf-76" target="vPGKGPONP4oqaYuJoUhf-25">
          <mxGeometry relative="1" as="geometry" />
        </mxCell>
        <mxCell id="vPGKGPONP4oqaYuJoUhf-76" value="ready" style="ellipse;whiteSpace=wrap;html=1;aspect=fixed;direction=south;fillColor=#8a8a8a;strokeColor=none;fontColor=#FFFFFF;" vertex="1" parent="1">
          <mxGeometry x="449.38" y="300" width="41.25" height="41.25" as="geometry" />
        </mxCell>
        <mxCell id="vPGKGPONP4oqaYuJoUhf-89" value="plugin lifecycle hooks" style="text;html=1;align=center;verticalAlign=middle;whiteSpace=wrap;rounded=0;fontColor=#64BC71;fontStyle=2" vertex="1" parent="1">
          <mxGeometry x="230" y="120" width="160" height="20" as="geometry" />
        </mxCell>
        <mxCell id="vPGKGPONP4oqaYuJoUhf-90" value="" style="rounded=0;whiteSpace=wrap;html=1;fillColor=none;dashed=1;dashPattern=8 8;strokeColor=#EEAB3B;" vertex="1" parent="1">
          <mxGeometry x="680" y="220" width="170" height="190" as="geometry" />
        </mxCell>
        <mxCell id="vPGKGPONP4oqaYuJoUhf-91" value="window hooks" style="text;html=1;align=center;verticalAlign=middle;whiteSpace=wrap;rounded=0;fontColor=#EEAB3B;fontStyle=2" vertex="1" parent="1">
          <mxGeometry x="680" y="220" width="170" height="20" as="geometry" />
        </mxCell>
        <mxCell id="vPGKGPONP4oqaYuJoUhf-92" value="repeat" style="text;html=1;align=center;verticalAlign=middle;resizable=0;points=[];autosize=1;strokeColor=none;fillColor=none;fontColor=#8A8A8A;" vertex="1" parent="1">
          <mxGeometry x="527" y="305.62" width="60" height="30" as="geometry" />
        </mxCell>
      </root>
    </mxGraphModel>
  </diagram>
</mxfile>
